<?xml version="1.0" encoding="utf-8"?>
<svg version="1.1" xmlns:xlink="http://www.w3.org/1999/xlink" width="40px" height="40px" xmlns="http://www.w3.org/2000/svg">
  <defs>
    <filter x="116px" y="52px" width="40px" height="40px" filterUnits="userSpaceOnUse" id="filter15">
      <feOffset dx="1" dy="1" in="SourceAlpha" result="shadowOffsetInner" />
      <feGaussianBlur stdDeviation="2.5" in="shadowOffsetInner" result="shadowGaussian" />
      <feComposite in2="shadowGaussian" operator="atop" in="SourceAlpha" result="shadowComposite" />
      <feColorMatrix type="matrix" values="0 0 0 0 0  0 0 0 0 0  0 0 0 0 0  0 0 0 0.698039215686274 0  " in="shadowComposite" />
    </filter>
    <g id="widget16">
      <path d="M 135 56  C 143.4 56  150 62.6  150 71  C 150 79.4  143.4 86  135 86  C 126.6 86  120 79.4  120 71  C 120 62.6  126.6 56  135 56  Z " fill-rule="nonzero" fill="#009dd9" stroke="none" />
      <path d="M 135 56.5  C 143.12 56.5  149.5 62.88  149.5 71  C 149.5 79.12  143.12 85.5  135 85.5  C 126.88 85.5  120.5 79.12  120.5 71  C 120.5 62.88  126.88 56.5  135 56.5  Z " stroke-width="1" stroke="#ffffff" fill="none" />
    </g>
  </defs>
  <g transform="matrix(1 0 0 1 -116 -52 )">
    <use xlink:href="#widget16" filter="url(#filter15)" />
    <use xlink:href="#widget16" />
  </g>
</svg>