<?xml version="1.0" encoding="utf-8"?>
<svg version="1.1" xmlns:xlink="http://www.w3.org/1999/xlink" width="25px" height="25px" xmlns="http://www.w3.org/2000/svg">
  <defs>
    <filter x="57px" y="34px" width="25px" height="25px" filterUnits="userSpaceOnUse" id="filter13">
      <feOffset dx="1" dy="1" in="SourceAlpha" result="shadowOffsetInner" />
      <feGaussianBlur stdDeviation="2.5" in="shadowOffsetInner" result="shadowGaussian" />
      <feComposite in2="shadowGaussian" operator="atop" in="SourceAlpha" result="shadowComposite" />
      <feColorMatrix type="matrix" values="0 0 0 0 0  0 0 0 0 0  0 0 0 0 0  0 0 0 0.698039215686274 0  " in="shadowComposite" />
    </filter>
    <g id="widget14">
      <path d="M 68.5 38  C 72.7 38  76 41.3  76 45.5  C 76 49.7  72.7 53  68.5 53  C 64.3 53  61 49.7  61 45.5  C 61 41.3  64.3 38  68.5 38  Z " fill-rule="nonzero" fill="#009dd9" stroke="none" />
      <path d="M 68.5 38.5  C 72.42 38.5  75.5 41.58  75.5 45.5  C 75.5 49.42  72.42 52.5  68.5 52.5  C 64.58 52.5  61.5 49.42  61.5 45.5  C 61.5 41.58  64.58 38.5  68.5 38.5  Z " stroke-width="1" stroke="#ffffff" fill="none" />
    </g>
  </defs>
  <g transform="matrix(1 0 0 1 -57 -34 )">
    <use xlink:href="#widget14" filter="url(#filter13)" />
    <use xlink:href="#widget14" />
  </g>
</svg>