<?xml version="1.0" encoding="utf-8"?>
<svg version="1.1" xmlns:xlink="http://www.w3.org/1999/xlink" width="153px" height="37px" xmlns="http://www.w3.org/2000/svg">
  <g transform="matrix(1 0 0 1 -170 -996 )">
    <path d="M 181 1026.4  C 181 1026.4  181 1019.3643225276  181 1019.3643225276  C 181 1019.3643225276  170.687943262411 1003.58865248227  170.687943262411 1003.58865248227  C 170.687943262411 1003.58865248227  181.114365194395 1000.83410852347  181.114365194395 1000.83410852347  C 181.6709284843 998.024474576815  184.135771376123 996  187 996  C 187 996  317 996  317 996  C 320.313708498985 996  323 998.686291501015  323 1002  C 323 1002  323 1026.4  323 1026.4  C 323 1029.71370849898  320.313708498985 1032.4  317 1032.4  C 317 1032.4  187 1032.4  187 1032.4  C 183.686291501015 1032.4  181 1029.71370849898  181 1026.4  Z " fill-rule="nonzero" fill="#333333" stroke="none" fill-opacity="0.486274509803922" />
  </g>
</svg>