<?xml version="1.0" encoding="utf-8"?>
<svg version="1.1" xmlns:xlink="http://www.w3.org/1999/xlink" width="30px" height="20px" xmlns="http://www.w3.org/2000/svg">
  <g transform="matrix(1 0 0 1 -352 -98 )">
    <path d="M 29.9133333334375 10.5766666665625  C 29.9133333334375 5.04  25.46 0.556666666562496  19.9166666665625 0.5266666665625  C 16.21 0.5066666665625  12.9666666665625 2.49  11.2066666665625 5.46  C 10.24 5.0266666665625  9.17 4.7833333334375  8.0433333334375 4.7733333334375  C 3.636666666875 4.7333333334375  0.0633333334374981 8.2533333334375  0.0433333334374986 12.66  C 0.0399999999999985 13.0833333334375  0.0733333334374986 13.5  0.133333333437499 13.9066666665625  C 0.139999999999999 13.95  0.146666666874999 13.9966666665625  0.153333333437499 14.04  C 0.653333333437499 16.9766666665625  3.23 19.11  6.21 19  L 21.9833333334375 19  C 25.24 19.11  28.176666666875 17.1  29.2966666665625 14.0433333334375  C 29.313333333125 14  29.33 13.9533333334375  29.3466666665625 13.9066666665625  C 29.713333333125 12.863333333125  29.913333333125 11.743333333125  29.9133333334375 10.5766666665625  Z " fill-rule="nonzero" fill="#72aefd" stroke="none" transform="matrix(1 0 0 1 352 98 )" />
  </g>
</svg>