<?xml version="1.0" encoding="utf-8"?>
<svg version="1.1" xmlns:xlink="http://www.w3.org/1999/xlink" width="11px" height="7px" xmlns="http://www.w3.org/2000/svg">
  <g transform="matrix(1 0 0 1 -17 -167 )">
    <path d="M 10.7958984375 5.67534722222222  C 10.9319661458333 5.8292824074074  11 6.01157407407407  11 6.22222222222222  C 11 6.43287037037037  10.9319661458333 6.61516203703704  10.7958984375 6.76909722222222  C 10.6598307291667 6.9230324074074  10.4986979166667 7  10.3125 7  L 0.6875 7  C 0.501302083333333 7  0.340169270833333 6.9230324074074  0.2041015625 6.76909722222222  C 0.0680338541666667 6.61516203703704  0 6.43287037037037  0 6.22222222222222  C 0 6.01157407407407  0.0680338541666667 5.8292824074074  0.2041015625 5.67534722222222  L 5.0166015625 0.230902777777778  C 5.15266927083333 0.0769675925925917  5.31380208333333 0  5.5 0  C 5.68619791666667 0  5.84733072916667 0.0769675925925917  5.9833984375 0.230902777777778  L 10.7958984375 5.67534722222222  Z " fill-rule="nonzero" fill="#15c7ff" stroke="none" fill-opacity="0.980392156862745" transform="matrix(1 0 0 1 17 167 )" />
  </g>
</svg>