<?xml version="1.0" encoding="utf-8"?>
<svg version="1.1" xmlns:xlink="http://www.w3.org/1999/xlink" width="27px" height="25px" xmlns="http://www.w3.org/2000/svg">
  <g transform="matrix(1 0 0 1 -69 -96 )">
    <path d="M 26.4038722826087 10.0208600770218  C 26.8012907608696 10.4220154043646  27 10.9060761660248  27 11.4730423620026  L 27 13.5269576379974  C 27 14.0939238339752  26.8012907608696 14.5779845956354  26.4038722826087 14.9791399229782  C 26.0064538043478 15.3802952503209  25.4898097826087 15.5808729139923  24.8539402173913 15.5808729139923  L 11.9408967391304 15.5808729139923  L 17.3152173913043 20.298459563543  C 17.7798913043478 20.683568677792  18.0122282608696 21.1649550706033  18.0122282608696 21.7426187419769  C 18.0122282608696 22.3202824133505  17.7798913043478 22.8016688061617  17.3152173913043 23.1867779204108  L 15.9395380434783 24.4062901155327  C 15.4870923913043 24.8020967051776  14.9368206521739 25  14.288722826087 25  C 13.6528532608696 25  13.0964673913043 24.8020967051776  12.6195652173913 24.4062901155327  L 0.67866847826087 13.9441591784339  C 0.226222826086957 13.548352588789  0 13.0669661959777  0 12.5  C 0 11.9437312794181  0.226222826086957 11.4569961489089  0.67866847826087 11.0397946084724  L 12.6195652173913 0.609756097560976  C 13.0842391304348 0.203252032520324  13.640625 0  14.288722826087 0  C 14.9245923913043 0  15.4748641304348 0.203252032520324  15.9395380434783 0.609756097560976  L 17.3152173913043 1.79717586649551  C 17.7798913043478 2.20367993153616  18.0122282608696 2.69041506204535  18.0122282608696 3.25738125802311  C 18.0122282608696 3.82434745400085  17.7798913043478 4.31108258451005  17.3152173913043 4.71758664955071  L 11.9408967391304 9.4191270860077  L 24.8539402173913 9.4191270860077  C 25.4898097826087 9.4191270860077  26.0064538043478 9.61970474967907  26.4038722826087 10.0208600770218  Z " fill-rule="nonzero" fill="#999999" stroke="none" transform="matrix(1 0 0 1 69 96 )" />
  </g>
</svg>