<?xml version="1.0" encoding="utf-8"?>
<svg version="1.1" xmlns:xlink="http://www.w3.org/1999/xlink" width="300px" height="50px" xmlns="http://www.w3.org/2000/svg">
  <g transform="matrix(1 0 0 1 -25 -292 )">
    <path d="M 26.5 295  A 1.5 1.5 0 0 1 28 293.5 L 322 293.5  A 1.5 1.5 0 0 1 323.5 295 L 323.5 339  A 1.5 1.5 0 0 1 322 340.5 L 28 340.5  A 1.5 1.5 0 0 1 26.5 339 L 26.5 295  Z " fill-rule="nonzero" fill="#ffffff" stroke="none" fill-opacity="0" />
    <path d="M 26 295  A 2 2 0 0 1 28 293 L 322 293  A 2 2 0 0 1 324 295 L 324 339  A 2 2 0 0 1 322 341 L 28 341  A 2 2 0 0 1 26 339 L 26 295  Z " stroke-width="2" stroke="#1abc9c" fill="none" />
  </g>
</svg>