<?xml version="1.0" encoding="utf-8"?>
<svg version="1.1" xmlns:xlink="http://www.w3.org/1999/xlink" width="16px" height="16px" xmlns="http://www.w3.org/2000/svg">
  <g transform="matrix(1 0 0 1 -370 -461 )">
    <path d="M 14.4672949895313 4.3333020834375  L 14.4682949895313 4.3333020834375  C 13.1704584286675 1.87201313629866  10.6166446377865 0.331535060388086  7.83414162430694 0.331535060388086  C 3.69203188892364 0.331535060388086  0.334188499306943 3.68937845000478  0.334188499306943 7.83148818538809  C 0.334188499306943 11.9735979207714  3.69203188892364 15.3314413103881  7.83414162430694 15.3314413103881  C 11.781476388846 15.3314413103881  15.0531908581829 12.2717670932283  15.3172896770312 8.3332770834375  L 14.3132959582812 8.3332770834375  C 14.0517186935799 11.718806345996  11.228270692443 14.3325202715303  7.83265130077846 14.3325202715303  C 4.24282286344626 14.3325202715303  1.33269192577846 11.4223893338625  1.33269192577846 7.8325608965303  C 1.33269192577846 4.2427324591981  4.24282286344626 1.3326015215303  7.83265130077846 1.3326015215303  C 10.0509498313815 1.3326015215303  12.1160792702769 2.46389578519724  13.3103022239063 4.3333020834375  L 14.4672949895313 4.3333020834375  Z " fill-rule="nonzero" fill="#7f7f7f" stroke="none" transform="matrix(1 0 0 1 370 461 )" />
  </g>
</svg>