<?xml version="1.0" encoding="utf-8"?>
<svg version="1.1" xmlns:xlink="http://www.w3.org/1999/xlink" width="108px" height="80px" xmlns="http://www.w3.org/2000/svg">
  <g transform="matrix(1 0 0 1 -18 -358 )">
    <path d="M 18 413.294117647059  C 18 413.294117647059  18 362  18 362  C 18 359.790861000677  19.7908610006768 358  22 358  C 22 358  122 358  122 358  C 124.209138999323 358  126 359.790861000677  126 362  C 126 362  126 413.294117647059  126 413.294117647059  C 126 415.503256646382  124.209138999323 417.294117647059  122 417.294117647059  C 122 417.294117647059  70.12 417.294117647059  70.12 417.294117647059  C 70.12 417.294117647059  60.624 436.588235294118  60.624 436.588235294118  C 60.624 436.588235294118  50.12 417.294117647059  50.12 417.294117647059  C 50.12 417.294117647059  22 417.294117647059  22 417.294117647059  C 19.7908610006768 417.294117647059  18 415.503256646382  18 413.294117647059  Z " fill-rule="nonzero" fill="#05cae5" stroke="none" />
  </g>
</svg>